<?xml version="1.0" encoding="UTF-8" standalone="no"?>
<!-- Created with Inkscape (http://www.inkscape.org/) -->

<svg
   width="74.871185mm"
   height="74.758484mm"
   viewBox="0 0 74.871185 74.758484"
   version="1.1"
   id="svg5"
   inkscape:version="1.2 (dc2aedaf03, 2022-05-15)"
   sodipodi:docname="Go.svg"
   xmlns:inkscape="http://www.inkscape.org/namespaces/inkscape"
   xmlns:sodipodi="http://sodipodi.sourceforge.net/DTD/sodipodi-0.dtd"
   xmlns="http://www.w3.org/2000/svg"
   xmlns:svg="http://www.w3.org/2000/svg">
  <sodipodi:namedview
     id="namedview7"
     pagecolor="#ffffff"
     bordercolor="#666666"
     borderopacity="1.0"
     inkscape:showpageshadow="2"
     inkscape:pageopacity="0.0"
     inkscape:pagecheckerboard="0"
     inkscape:deskcolor="#d1d1d1"
     inkscape:document-units="mm"
     showgrid="false"
     inkscape:zoom="0.50333195"
     inkscape:cx="190.729"
     inkscape:cy="250.33181"
     inkscape:window-width="1366"
     inkscape:window-height="745"
     inkscape:window-x="-8"
     inkscape:window-y="-8"
     inkscape:window-maximized="1"
     inkscape:current-layer="layer1">
    <inkscape:grid
       type="xygrid"
       id="grid10674"
       originx="0.95019753"
       originy="0.94943017" />
  </sodipodi:namedview>
  <defs
     id="defs2">
    <rect
       x="145.03352"
       y="427.1535"
       width="723.18085"
       height="449.00787"
       id="rect4519" />
    <rect
       x="290.06702"
       y="500.66364"
       width="381.45801"
       height="258.27887"
       id="rect4463" />
  </defs>
  <g
     inkscape:label="Calque 1"
     inkscape:groupmode="layer"
     id="layer1"
     transform="translate(-76.229758,-120.64851)">
    <ellipse
       style="opacity:1;fill:#32312b;fill-opacity:1;stroke:#00e15f;stroke-width:4.534;stroke-dasharray:18.13599968, 9.06799984;stroke-dashoffset:0;stroke-opacity:0.40495864;stroke-linecap:round;stroke-linejoin:bevel"
       id="path1465"
       cx="113.66542"
       cy="158.02765"
       rx="34.56852"
       ry="34.512142" />
    <ellipse
       style="fill:#72df46;fill-opacity:1;stroke:#004e21;stroke-width:0.924;stroke-dasharray:7.39199618, 0.924;stroke-dashoffset:0;stroke-opacity:0.49173555"
       id="path1465-3"
       cx="113.64606"
       cy="158.12073"
       rx="29.724136"
       ry="29.805847" />
    <path
       id="path1465-3-7"
       style="fill:#0e1511;fill-opacity:0.0247934;stroke:#00e15f;stroke-width:0.993;stroke-dasharray:none;stroke-dashoffset:0;stroke-opacity:0.404959"
       d="m 113.67834,125.87006 c -4.13226,3e-5 -8.081,0.79044 -11.70498,2.22913 -11.826944,4.6952 -20.195019,16.29503 -20.194883,29.8609 1.08e-4,17.72248 14.282091,32.08937 31.899863,32.08951 17.61797,1.5e-4 31.90027,-14.36683 31.90038,-32.08951 1.8e-4,-17.72289 -14.2822,-32.09018 -31.90038,-32.09003 z m 0.0351,2.19366 c 16.41628,-8e-5 29.72433,13.34453 29.72428,29.80593 5e-5,16.46141 -13.308,29.80602 -29.72428,29.80594 -16.416282,8e-5 -29.724337,-13.34453 -29.724286,-29.80594 -4.6e-5,-16.46141 13.308008,-29.80601 29.724286,-29.80593 z"
       sodipodi:nodetypes="cscsccccccc" />
    <text
       xml:space="preserve"
       transform="matrix(0.26458333,0,0,0.26458333,28.911504,18.39823)"
       id="text4461"
       style="font-style:normal;font-weight:normal;font-size:40px;line-height:1.25;font-family:sans-serif;white-space:pre;shape-inside:url(#rect4463);display:inline;fill:#000000;fill-opacity:1;stroke:none" />
    <g
       id="g12150"
       transform="matrix(0.97424687,0,0,1.0100681,2.0219198,-1.2591958)">
      <circle
         style="opacity:0.526749;fill:#ffffff;fill-opacity:0.596154;stroke:none;stroke-width:0.148413;stroke-opacity:1"
         id="path6837-0"
         cx="114.7319"
         cy="157.90498"
         r="15.797267" />
      <circle
         style="opacity:0.526749;fill:#ffffff;fill-opacity:0.596154;stroke:none;stroke-width:0.172857;stroke-opacity:1"
         id="path6837"
         cx="114.70684"
         cy="157.83926"
         r="18.39917" />
    </g>
    <g
       id="g9149"
       transform="translate(-0.37170036,0.37170036)">
      <g
         id="g9144">
        <ellipse
           style="opacity:0.526749;fill:#ffffff;fill-opacity:0.942308;stroke:none;stroke-width:0.129258;stroke-opacity:1"
           id="path4182"
           cx="-135.00639"
           cy="114.3045"
           rx="4.8477497"
           ry="4.7223849"
           transform="matrix(-0.11217471,-0.9936885,0.99705094,0.07674263,0,0)" />
      </g>
      <ellipse
         style="opacity:0.526749;fill:#ffffff;fill-opacity:0.942308;stroke:none;stroke-width:0.0656957;stroke-opacity:1"
         id="path4182-3"
         cx="179.50659"
         cy="68.385033"
         rx="3.0555861"
         ry="1.9353611"
         transform="rotate(26.709879)" />
    </g>
    <path
       style="fill:#ffffff;fill-opacity:0.14423077;stroke:none;stroke-width:0.264583px;stroke-linecap:butt;stroke-linejoin:miter;stroke-opacity:1"
       d="m 88.704268,142.51506 c 8.966832,4.89441 17.131462,10.43057 24.346372,16.72652 4.03882,9.10263 7.48663,17.21952 9.45581,27.01204 15.56383,-4.50502 25.10618,-23.48245 19.05479,-38.59724 -5.49464,-13.76898 -22.00552,-22.35155 -36.35268,-18.04088 -6.702228,2.03701 -12.109796,7.51753 -16.504292,12.89956 z"
       id="path65330"
       sodipodi:nodetypes="cccccc" />
    <path
       style="fill:#ffffff;fill-opacity:0.14423077;stroke:none;stroke-width:0.264583px;stroke-linecap:butt;stroke-linejoin:miter;stroke-opacity:1"
       d="m 85.616576,152.00731 c 10.065099,1.74732 19.577284,4.36047 28.434904,7.9987 6.75409,7.31792 12.63132,13.89284 17.64803,22.53018 3.65679,-2.55311 8.19899,-8.62878 10.05769,-15.36968 3.04467,-11.04208 0.0756,-22.70911 1.28524,-15.6181 1.93429,11.3388 -26.42201,14.99693 -28.19959,5.13234 -6.71182,-6.08856 -0.78785,-21.70848 7.31364,-26.18363 -8.28605,-2.84792 -17.8488,-1.16454 -25.066728,3.98432 -6.566723,3.69635 -11.202245,10.05699 -11.473186,17.52587 z"
       id="path65330-0"
       sodipodi:nodetypes="cccsscccc" />
    <g
       aria-label="Go !"
       transform="matrix(0.26451702,0,0,0.26705856,65.588599,35.511625)"
       id="text4517"
       style="font-size:53.3333px;line-height:1.25;font-family:Impact;-inkscape-font-specification:Impact;white-space:pre;shape-inside:url(#rect4519);display:inline;fill:#ffffff;stroke:#000000;stroke-opacity:1;stroke-width:2.12954278;stroke-dasharray:none">
      <path
         d="M 172.37694,453.90471 H 161.4134 v -3.82812 q 0,-3.61979 -0.3125,-4.53125 -0.3125,-0.91146 -1.48437,-0.91146 -1.01563,0 -1.38021,0.78125 -0.36458,0.78125 -0.36458,4.01042 v 20.23436 q 0,2.83854 0.36458,3.75 0.36458,0.88541 1.45833,0.88541 1.19792,0 1.61459,-1.01562 0.4427,-1.01563 0.4427,-3.95833 v -5 h -2.21354 v -6.40625 h 12.83854 v 22.6302 h -6.90104 l -1.01563,-3.02083 q -1.11979,1.95312 -2.83854,2.9427 -1.6927,0.96354 -4.01041,0.96354 -2.76041,0 -5.18229,-1.32812 -2.39583,-1.35417 -3.64583,-3.33333 -1.25,-1.97917 -1.5625,-4.14062 -0.3125,-2.1875 -0.3125,-6.53646 v -12.52603 q 0,-6.04167 0.65104,-8.77604 0.65104,-2.73437 3.72396,-5 3.09896,-2.29166 7.99479,-2.29166 4.8177,0 7.99478,1.97916 3.17708,1.97917 4.14063,4.71354 0.96354,2.70834 0.96354,7.89062 z"
         id="path13018"
         style="stroke:#000000;stroke-opacity:1;stroke-width:2.12954278;stroke-dasharray:none" />
      <path
         d="m 200.1113,458.12346 v 8.46353 q 0,4.66146 -0.46875,6.84896 -0.46875,2.16145 -2.00521,4.0625 -1.53646,1.87499 -3.95833,2.78645 -2.39583,0.88542 -5.52083,0.88542 -3.48958,0 -5.91146,-0.75521 -2.42187,-0.78125 -3.77604,-2.31771 -1.32812,-1.5625 -1.90104,-3.74999 -0.57291,-2.21354 -0.57291,-6.61458 v -8.85417 q 0,-4.8177 1.04166,-7.52603 1.04167,-2.70833 3.75,-4.34896 2.70833,-1.64062 6.92708,-1.64062 3.54166,0 6.0677,1.06771 2.55209,1.04166 3.93229,2.73437 1.38021,1.69271 1.875,3.48958 0.52084,1.79687 0.52084,5.46875 z m -10.52083,-2.60417 q 0,-2.65625 -0.28646,-3.33333 -0.28646,-0.70312 -1.22396,-0.70312 -0.9375,0 -1.25,0.70312 -0.3125,0.67708 -0.3125,3.33333 v 15.59895 q 0,2.44792 0.3125,3.20312 0.3125,0.72917 1.22396,0.72917 0.9375,0 1.22396,-0.67708 0.3125,-0.67709 0.3125,-2.91667 z"
         id="path13020"
         style="stroke:#000000;stroke-opacity:1;stroke-width:2.12954278;stroke-dasharray:none" />
      <path
         d="m 224.53836,438.38389 -1.71875,31.74477 h -8.12499 l -1.71875,-31.74477 z m -0.85937,33.72393 v 8.4375 h -9.84375 v -8.4375 z"
         id="path13022"
         style="stroke:#000000;stroke-opacity:1;stroke-width:2.12954278;stroke-dasharray:none" />
    </g>
  </g>
</svg>
