<?xml version="1.0" encoding="UTF-8" standalone="no"?>
<!-- Created with Inkscape (http://www.inkscape.org/) -->

<svg
   width="310.86942mm"
   height="115.10159mm"
   viewBox="0 0 310.86941 115.10158"
   version="1.1"
   id="svg5"
   inkscape:version="1.2 (dc2aedaf03, 2022-05-15)"
   sodipodi:docname="land.svg"
   xmlns:inkscape="http://www.inkscape.org/namespaces/inkscape"
   xmlns:sodipodi="http://sodipodi.sourceforge.net/DTD/sodipodi-0.dtd"
   xmlns="http://www.w3.org/2000/svg"
   xmlns:svg="http://www.w3.org/2000/svg">
  <sodipodi:namedview
     id="namedview7"
     pagecolor="#ffffff"
     bordercolor="#666666"
     borderopacity="1.0"
     inkscape:showpageshadow="2"
     inkscape:pageopacity="0.0"
     inkscape:pagecheckerboard="0"
     inkscape:deskcolor="#d1d1d1"
     inkscape:document-units="mm"
     showgrid="false"
     inkscape:zoom="0.71181884"
     inkscape:cx="516.98547"
     inkscape:cy="77.26685"
     inkscape:window-width="1366"
     inkscape:window-height="745"
     inkscape:window-x="-8"
     inkscape:window-y="-8"
     inkscape:window-maximized="1"
     inkscape:current-layer="layer1" />
  <defs
     id="defs2" />
  <g
     inkscape:label="Calque 1"
     inkscape:groupmode="layer"
     id="layer1"
     transform="translate(31.742229,-34.03158)">
    <path
       id="path375-0"
       style="fill:#008000;fill-opacity:0.992157;stroke:#000000;stroke-width:0.431;stroke-opacity:0.992157;stroke-dasharray:none"
       d="m 39.571525,118.07401 a 21.683628,7.359292 0 0 1 -21.683628,7.35929 21.683628,7.359292 0 0 1 -21.6836275,-7.35929 21.683628,7.359292 0 0 1 21.6836275,-7.35929 21.683628,7.359292 0 0 1 21.683628,7.35929 z" />
    <path
       style="fill:#4d4d4d;stroke:#000000;stroke-width:0.264583px;stroke-linecap:butt;stroke-linejoin:miter;stroke-opacity:1"
       d="m 99.148036,104.99618 3.153984,-29.437167 109.33805,5.782302 33.64248,42.578765 -42.0531,19.44955 -50.98938,-16.29557 z"
       id="path27943" />
    <path
       style="fill:#483737;stroke:#000000;stroke-width:0.264583px;stroke-linecap:butt;stroke-linejoin:miter;stroke-opacity:1"
       d="m 174.1321,145.03681 c 4.2874,-7.15065 -13.08288,-8.59781 -13.36173,-15.5351 -0.61765,-5.05006 1.26671,-12.12659 0.93165,-11.69248 13.94641,4.9598 28.96305,14.48087 39.94458,23.09564 1.95512,1.53375 8.84035,-1.86502 13.08174,-6.20869 18.77896,9.79068 17.88098,13.24622 -11.82779,12.69357 l -21.89427,-1.87913 z"
       id="path23857"
       sodipodi:nodetypes="cccscccc" />
    <path
       style="fill:#483737;stroke:#000000;stroke-width:0.264583px;stroke-linecap:butt;stroke-linejoin:miter;stroke-opacity:1"
       d="m 92.314406,111.43556 c 13.492034,-2.94828 26.984074,-2.65355 40.476104,-0.65708 0,0 4.66115,8.26028 3.63455,13.87726 -1.0266,5.61698 -7.31419,19.76522 -7.31419,19.76522 -14.4088,2.27152 -29.05265,3.95541 -46.218786,-0.66642 -5.947206,-3.90285 3.250168,-25.31626 3.250168,-25.31626 z"
       id="path23855"
       sodipodi:nodetypes="cczcccc" />
    <path
       style="fill:#6c5353;stroke:#000000;stroke-width:0.264583px;stroke-linecap:butt;stroke-linejoin:miter;stroke-opacity:1"
       d="m 58.209261,123.98307 2.230202,21.18692 23.79617,-1.26906 c -0.904302,-4.03267 -2.216066,-7.10827 -1.565591,-8.87384 2.508978,-2.41605 6.279121,-8.73913 7.844911,-12.25992 0.511088,-1.39388 1.298124,-7.70766 1.530437,-8.63691 l 1.631737,-3.04536 z"
       id="path23853"
       sodipodi:nodetypes="cccccccc" />
    <path
       style="fill:#00e9e9;fill-opacity:1;stroke:#000000;stroke-width:0.128789px;stroke-linecap:butt;stroke-linejoin:miter;stroke-opacity:1"
       d="m 123.41657,89.494807 c 25.61427,2.548767 37.42542,2.075094 58.091,1.474692 0,0 17.631,0.69066 17.96786,9.110761 0.33685,8.4201 -25.38816,8.54446 -25.38816,8.54446 1.52218,2.49933 3.54899,3.75448 4.61304,5.49235 1.00286,1.63792 1.85597,3.14098 2.48538,4.19608 5.32481,8.92612 -2.62802,0.89794 -13.24297,-2.09653 -1.61292,-0.455 -3.28731,-0.79379 -4.98592,-0.93921 l -5.75714,-1.7911 -22.38887,-1.15143 1.11317,-6.20886 C 128.31169,102.09624 123.6442,97.485376 117.5636,92.504739 Z"
       id="path63"
       sodipodi:nodetypes="cczcssscccccc" />
    <path
       style="fill:#00ff00;stroke:#000000;stroke-width:0.165335px;stroke-linecap:butt;stroke-linejoin:miter;stroke-opacity:1"
       d="m 36.306357,62.020279 -2.721758,29.090865 c 25.694128,0.782824 50.848001,-1.675884 76.065391,-3.753492 33.54222,1.731376 76.76785,2.151825 102.97621,6.587246 l -5.81419,-32.285996 c -32.93166,-2.474247 -65.86332,-3.37072 -98.79498,-0.904135 -24.371613,-0.04622 -50.910886,-2.260096 -71.710673,1.265512 z"
       id="path265"
       sodipodi:nodetypes="ccccccc" />
    <path
       style="fill:#000000;stroke:#000000;stroke-width:0.251563px;stroke-linecap:butt;stroke-linejoin:miter;stroke-opacity:1"
       d="m 156.54867,77.425386 c 0.41056,-1.823762 1.5602,-5.481566 2.44515,-6.840944 0.7895,-1.212761 2.05419,-2.226917 3.68104,-3.063083 9.27919,-4.769303 30.34043,-3.748036 42.20888,-0.761461 l 3.34627,13.688777 c -7.01817,-1.330684 -14.50328,-2.229115 -18.27415,-2.34276 -3.77087,-0.113645 -22.99246,-1.468289 -33.40719,-0.680529 z"
       id="path30530"
       sodipodi:nodetypes="csscczc" />
    <path
       style="fill:#c83737;stroke:#000000;stroke-width:0.128789px;stroke-linecap:butt;stroke-linejoin:miter;stroke-opacity:1"
       d="m 208.99834,105.45256 -12.84598,-20.083161 7.96089,0.72372 -12.48413,-17.36922 -10.67483,-9.589255 9.04647,-0.904646 2.35208,-1.990224 9.77019,-0.180929 15.01714,0.361859 -2.89488,49.393716 z"
       id="path267"
       sodipodi:nodetypes="ccccccccccc" />
    <path
       id="path375"
       style="fill:#00ff00;fill-opacity:0.992157;stroke:#000000;stroke-width:0.531;stroke-opacity:0.992157;stroke-dasharray:none"
       d="m 38.50366,116.07696 a 21.683628,7.359292 0 0 1 -21.683628,7.35929 21.683628,7.359292 0 0 1 -21.683628,-7.35929 21.683628,7.359292 0 0 1 21.683628,-7.35929 21.683628,7.359292 0 0 1 21.683628,7.35929 z" />
    <path
       style="fill:#b3b3b3;stroke:#000000;stroke-width:0.264583px;stroke-linecap:butt;stroke-linejoin:miter;stroke-opacity:1"
       d="m 56.890809,123.98578 c 0.570603,0.89922 1.687219,1.07632 1.687219,1.07632 0,0 26.574265,-11.63818 33.132366,-12.92163 6.070593,-1.18804 23.929356,-3.32772 38.131536,-1.75057 1.14053,0.12665 4.99876,1.29945 6.08412,1.47646 0.73397,-0.48765 -1.08212,-2.96577 -3.04091,-3.71251 0,0 -4.98095,-2.07441 -6.88059,-2.93627 -0.89813,-0.40748 -7.54793,-3.25984 -13.13418,-6.546094 -6.22921,-3.66449 -2.8583,-10.565758 -2.8583,-10.565758 -11.214163,-1.593178 -28.561379,2.369762 -39.775539,3.748891 -4.72542,7.38098 -8.831055,16.763351 -11.079046,27.612731 l -1.740528,2.18293 c 0,0 -1.096751,1.43629 -0.526148,2.3355 z"
       id="path22335"
       sodipodi:nodetypes="zcssccssccccz" />
    <path
       style="fill:#26eaea;fill-opacity:1;stroke:#000000;stroke-width:0.968;stroke-linecap:butt;stroke-linejoin:miter;stroke-dasharray:none;stroke-opacity:1"
       d="m 133.08566,132.24067 -0.75546,0.23608 c -2.5584,0.2231 -6.24247,0.90253 -7.74819,2.42131 -0.67286,0.6787 -3.03408,4.42577 -3.0691,6.10425 -0.0434,2.07759 2.38945,2.17258 3.0691,3.46235 4.0431,4.54292 8.62791,2.74488 12.4914,0.71733 3.35573,2.45863 6.01687,3.12487 9.87708,3.22075 l 8.19149,-3.67235 c 1.25181,1.59218 2.45049,3.25077 4.6643,3.64045 4.25813,0.31422 8.03767,-0.32872 11.81152,-0.98306 0.91784,-1.38952 1.567,-3.78909 1.52759,-5.5267 -0.89725,-3.97145 -3.94186,-7.79869 -8.10447,-8.63444 1.50531,-9.06726 -2.34905,-16.16039 -1.65473,-18.27845 0.33744,-1.02938 1.69951,-2.1887 2.57414,-2.71218 0.92502,-0.55364 3.01361,-0.1259 4.26745,-0.48988 -0.8374,-2.54559 -5.92593,-6.13908 -10.36796,-7.4641 -2.70509,-0.80691 -5.17042,0.16287 -6.28992,0.0131 -2.75752,-0.71955 -6.24365,-2.4369 -8.40251,-1.8768 -2.55491,0.66285 -5.12666,1.99502 -6.05766,2.11789 -1.53744,0.20291 -2.68976,-0.11451 -3.88778,-0.11116 -0.54285,0.002 -0.97598,0.13351 -1.2294,0.54481 -1.24029,1.83647 -1.93149,3.81373 -2.26702,5.88265 -1.09033,6.7231 1.57518,14.41421 1.3601,21.38814 z"
       id="path1109"
       sodipodi:nodetypes="ccssccccccccsscscssscscc" />
    <path
       style="fill:#00ff00;stroke:#000000;stroke-width:0.264583px;stroke-linecap:butt;stroke-linejoin:miter;stroke-opacity:1"
       d="m 184.47608,108.69805 c 0.54131,4.29466 6.06143,10.97632 9.75666,15.62141 10.54023,1.79842 15.29731,-0.34897 25.141,-1.3367 -4.03203,-5.69124 -5.6863,-8.23668 -11.76942,-12.56053 -7.87058,-0.78576 -15.95853,-3.74191 -23.12824,-1.72418 z"
       id="path1847"
       sodipodi:nodetypes="ccccc" />
    <path
       style="fill:#666666;stroke:#000000;stroke-width:0.264583px;stroke-linecap:butt;stroke-linejoin:miter;stroke-opacity:1"
       d="M 23.75295,56.246016 13.256746,109.35376 c 5.187842,0.8781 7.422164,4.17272 17.525017,1.02945 l 9.917708,-37.917824 5.657019,-4.129103 z"
       id="path2579"
       sodipodi:nodetypes="cccccc" />
    <path
       style="fill:#800000;stroke:#000000;stroke-width:0.264583px;stroke-linecap:butt;stroke-linejoin:miter;stroke-opacity:1"
       d="m 209.45317,105.93461 36.61248,19.70012 3.3453,-78.057083 -34.81228,2.755868 c -0.16964,2.326565 0.94719,4.469351 2.50224,6.549534 0,0 -4.31533,24.678612 -1.94984,27.306931 z"
       id="path3322"
       sodipodi:nodetypes="ccccccc" />
    <path
       style="fill:#b3b3b3;stroke:#000000;stroke-width:0.264583px;stroke-linecap:butt;stroke-linejoin:miter;stroke-opacity:1"
       d="m 44.715726,61.536244 c 0,0 68.008974,-15.806518 101.418794,-15.642365 26.40961,0.129759 68.59305,-6.56266 84.54105,-0.818989 4.22723,1.522434 7.45009,1.183515 7.45009,1.183515 -0.5471,0.847203 0.48233,2.325739 -0.21404,3.055067 -4.10117,4.295247 -8.09762,8.038268 -13.264,15.129141 -1.7096,2.346429 0.67504,3.687443 -2.33697,7.034043 -1.57998,1.755492 8.05403,6.399046 8.34732,9.040162 0.29329,2.641116 6.43881,9.212 9.04468,8.32035 -2.9662,1.702567 -3.98041,3.661912 -5.05258,4.974273 -1.40532,1.720142 -0.65903,2.976737 -0.12935,3.526534 1.58701,1.671147 6.0957,3.930125 10.30715,4.377955 -6.84208,5.27162 -6.4324,7.63297 -9.85619,13.93008 -8.32453,3.8729 -16.21264,11.71718 -21.67509,17.97515 13.75919,7.58692 -18.7633,21.54304 55.30354,8.21698 -1.50688,-7.95331 1.54998,-6.22365 -3.72168,-15.11815 13.27796,-0.47782 6.44052,-21.69526 9.25145,-25.63219 6.93604,-9.714459 4.21402,-9.59988 -4.46443,-14.878952 3.02128,-5.865304 0.84294,-9.844213 3.25855,-14.192919 2.41561,-4.348706 -0.41958,-9.531814 -4.21979,-15.860618 l 0.22817,-3.260535 -3.60182,-13.995661 -17.05444,3.063793 c 0,0 -54.2841,-4.36616 -100.03897,-5.530976 C 102.4823,35.267117 39.955817,43.163961 35.317552,46.419543 30.679287,49.675125 24.278613,62.189455 24.278613,62.189455 L 2.5022542,79.667673 35.317552,80.952212 35.821331,60.992465 Z"
       id="path2575"
       sodipodi:nodetypes="csscssszcsccccccsczcccczzccccc" />
    <path
       style="fill:#c83737;stroke:#000000;stroke-width:0.148293px;stroke-linecap:butt;stroke-linejoin:miter;stroke-opacity:1"
       d="m 28.932898,91.011252 c -5.928517,10.374198 -1.956723,5.947449 0.544421,5.002752 -4.810153,9.321776 -8.510082,16.362776 -11.811355,20.684276 -3.301273,4.3215 -1.735486,3.64485 -2.22125,3.88122 -2.973234,0.98969 -7.4855419,1.59183 -1.139189,-3.59681 1.213677,-1.27831 9.898238,-6.30214 14.627369,-25.971478 z"
       id="path28791"
       sodipodi:nodetypes="cczcccc" />
    <path
       style="fill:#00f300;fill-opacity:1;stroke:#000000;stroke-width:0.264583px;stroke-linecap:butt;stroke-linejoin:miter;stroke-opacity:1"
       d="M 8.4619068,93.154505 C 3.3545403,103.27024 1.9525024,112.64492 1.7713016,121.77542 14.444683,108.91313 18.39169,107.18753 25.188424,104.11965 c -1.411905,9.74816 8.848217,14.00187 14.496315,20.62937 3.373025,-9.23025 8.987651,-22.08905 4.460404,-28.992627 L 57.154657,105.0489 C 55.157522,97.10111 54.532479,88.924646 48.605547,81.631826 l -8.549108,-5.947207 -7.434008,4.460404 -3.717003,-11.522709 c -4.177608,-0.124843 -7.650097,1.39559 -10.779311,3.717001 -9.3811749,-1.943762 -15.3677881,2.222687 -23.0454188,3.345304 7.3928169,0.54988 0.4601176,19.983394 -2.2302021,33.824681 z"
       id="path15000"
       sodipodi:nodetypes="cccccccccccccc" />
    <path
       style="fill:#ffffff;stroke:#000000;stroke-width:0.257445px;stroke-linecap:butt;stroke-linejoin:miter;stroke-opacity:1"
       d="m 159.0074,102.13294 c 2.97848,1.90924 33.01611,-2.8604 19.48219,-7.88885 -9.83147,-1.263733 -12.54528,-0.815124 -21.45003,0.37199 -6.55065,3.25491 -13.05269,8.09648 1.96784,7.51686 z"
       id="path24655"
       sodipodi:nodetypes="cccc" />
    <path
       style="fill:#1be9e9;fill-opacity:1;stroke:#000000;stroke-width:0.875504;stroke-linecap:butt;stroke-linejoin:miter;stroke-dasharray:none;stroke-opacity:1"
       d="m 91.692829,60.04131 c -0.04949,0.279083 -0.130711,0.650163 -0.364703,0.790757 -4.808577,2.889238 -1.129502,18.98123 0.262735,27.919273 0.287354,0.03535 0.339941,-0.0046 0.575263,0.17285 6.777556,5.110314 15.684386,5.036299 27.060416,3.967021 3.21264,-0.520008 6.28925,-2.410167 9.35378,-2.629557 0.35068,-0.02053 1.00948,-1.475593 1.35982,-1.510764 2.15209,-9.149955 4.72403,-25.530183 0.8902,-27.532009 -0.3256,-0.170009 -0.41716,-0.596129 -0.45609,-0.976377 -2.63093,-0.23443 -3.57945,-2.183048 -6.76621,-2.497897 -3.18675,-0.31485 -8.68775,0.39092 -12.6005,0.347935 -4.01792,-0.04413 -9.15782,-0.907774 -12.500529,-0.618576 -3.342711,0.289197 -4.31403,2.309841 -6.814182,2.567344 z"
       id="path1107"
       sodipodi:nodetypes="cscscccsczszc" />
    <path
       style="fill:#1be9e9;fill-opacity:1;stroke:#000000;stroke-width:0.834;stroke-linecap:butt;stroke-linejoin:miter;stroke-dasharray:none;stroke-opacity:1"
       d="m 160.04598,75.420745 c -0.0273,0.188163 -0.0723,0.438349 -0.20148,0.533139 -2.65656,1.94796 -0.27678,13.048941 0.49237,19.075082 3.57555,0.35239 6.14855,-0.977646 4.37302,-2.23768 -4.1496,-2.944836 4.2626,5.498188 10.54742,4.777278 1.77486,-0.35061 3.47459,-1.624967 5.1676,-1.772884 0.19376,-0.01387 -2.20203,-4.148849 -2.00848,-4.172563 3.04672,-4.493515 4.00255,-7.305589 4.12267,-9.466886 0.10266,-1.847145 0.12057,-3.186096 -0.21405,-4.725956 -0.0453,-0.208436 -0.39474,-0.92758 -0.90906,-1.873883 -4.38795,-2.035561 -16.1237,-2.917917 -21.37001,-0.135647 z"
       id="path1107-8"
       sodipodi:nodetypes="cscscccsscc" />
    <path
       style="fill:none;stroke:#000000;stroke-width:0.264583px;stroke-linecap:butt;stroke-linejoin:miter;stroke-opacity:1"
       d="m 82.983875,110.78783 c -0.997729,-2.11548 4.039347,-4.14357 4.890284,-3.82447 0.15272,-0.91632 10.838009,-2.0444 12.803041,0.0838"
       id="path24657"
       sodipodi:nodetypes="ccc" />
    <path
       style="fill:#ffffff;stroke:#000000;stroke-width:0.264583px;stroke-linecap:butt;stroke-linejoin:miter;stroke-opacity:1"
       d="m 154.51622,91.858205 -1.15166,-3.372521 5.29673,-2.973602 7.99156,1.858502 c 0,0 1.61576,-1.364812 2.04435,-1.486802 0.42859,-0.12199 3.67818,-0.799258 4.52495,-0.3717 0.50554,0.255259 1.59927,1.924828 1.55724,2.779823 -0.041,0.833971 1.07304,0.93718 1.07304,0.93718 0.72061,0.668689 2.23334,1.959598 3.18227,2.03464 0.42583,0.03368 0.37362,-0.41871 0.62766,-0.89115 l 0.84567,-1.374065 c 1.4659,0.533246 2.64414,1.246274 3.61473,2.089084 -0.42852,1.131442 -0.7954,2.273158 -1.57972,3.345301 -0.15851,0.316587 -0.28981,0.639973 -0.92925,0.836327 l -1.76558,-0.278775 z"
       id="path31907"
       sodipodi:nodetypes="cccczsscsccccccc" />
    <path
       style="fill:#808080;stroke:#000000;stroke-width:0.264583px;stroke-linecap:butt;stroke-linejoin:miter;stroke-opacity:1"
       d="m 156.18255,90.80326 c -0.51496,1.139737 -5.51947,8.410619 -5.51947,8.410619 1.46619,0.622549 3.67099,1.163031 6.71403,1.610371 1.96333,1.57083 4.28903,2.6887 6.95323,3.38344 l 8.93628,-3.67965 9.72478,-0.52567 c 0,0 -5.06626,-8.530107 -5.51947,-8.936276 -0.45321,-0.406169 -8.24591,-2.652851 -8.67345,-2.891153 -0.42754,-0.238302 -3.24318,-3.655357 -3.94248,-3.942476 -0.6993,-0.287119 -5.79044,1.80478 -6.41683,2.166428 -0.62639,0.361648 -1.74166,3.26463 -2.25662,4.404367 z"
       id="path24707"
       sodipodi:nodetypes="zccccczzzzz" />
    <path
       style="fill:#000000;stroke:#000000;stroke-width:0.264583px;stroke-linecap:butt;stroke-linejoin:miter;stroke-opacity:1"
       d="m 198.97768,147.03333 c 1.63697,-0.91658 4.40468,-2.91392 5.03654,-4.13556 0.48818,-0.94383 -0.95405,-1.21864 -1.08085,-1.46186 1.12857,1.08542 4.25417,-1.15554 5.12822,-0.56841 0.66695,0.44802 -0.65015,0.86649 -0.76263,1.91706 -0.12496,1.16718 0.89947,2.97304 0.615,3.46027 -0.7049,1.33173 -5.33684,1.08659 -8.93628,0.7885 z"
       id="path26284"
       sodipodi:nodetypes="cscsscc" />
    <path
       style="fill:#000000;fill-opacity:0.5;stroke:none;stroke-width:0.264583px;stroke-linecap:butt;stroke-linejoin:miter;stroke-opacity:1"
       d="m 184.43697,144.81521 c -6.50296,-4.70319 -8.80054,-12.99846 -15.24425,-16.95266 10.11302,3.29502 20.02503,7.70015 28.38585,13.79868 -3.50675,1.78217 -8.23432,3.12248 -13.1416,3.15398 z"
       id="path26332"
       sodipodi:nodetypes="cccc" />
    <path
       style="fill:#000000;fill-opacity:0.5;stroke:none;stroke-width:0.175164px;stroke-linecap:butt;stroke-linejoin:miter;stroke-opacity:1"
       d="m 184.93587,141.91129 c -4.3052,-3.11369 -7.13132,-7.21343 -10.09226,-11.22329 6.69519,2.18143 13.25731,5.09779 18.79249,9.13524 -2.3216,1.17986 -5.45143,2.0672 -8.70023,2.08805 z"
       id="path26332-4"
       sodipodi:nodetypes="cccc" />
    <path
       style="fill:#000000;fill-opacity:0.5;stroke:none;stroke-width:0.175164px;stroke-linecap:butt;stroke-linejoin:miter;stroke-opacity:1"
       d="m 76.066627,142.36892 c -5.302725,0.33304 -10.090461,-1.03532 -14.925139,-2.2486 6.555095,-2.57195 13.474638,-4.49197 20.314062,-4.89377 -1.042179,2.38658 -2.89423,5.06111 -5.388923,7.14237 z"
       id="path26332-4-5"
       sodipodi:nodetypes="cccc" />
    <path
       style="fill:#000000;fill-opacity:0.5;stroke:none;stroke-width:0.351868px;stroke-linecap:butt;stroke-linejoin:miter;stroke-opacity:1"
       d="m 118.92056,131.27187 c -9.23234,0.77188 -16.54588,1.96792 -24.963331,-0.84408 11.412801,-5.96099 22.159161,-11.06148 34.066971,-11.99273 -1.8145,5.53135 -4.76025,8.01309 -9.10364,12.83681 z"
       id="path26332-4-5-8"
       sodipodi:nodetypes="cccc" />
    <path
       style="fill:none;stroke:#000000;stroke-width:0.264583px;stroke-linecap:butt;stroke-linejoin:miter;stroke-opacity:1"
       d="m 97.2378,130.67368 c 0,0 13.76733,-2.68423 18.8817,-5.3576 5.11437,-2.67337 11.78358,-6.90852 11.78358,-6.90852"
       id="path27281"
       sodipodi:nodetypes="czc" />
    <path
       style="fill:#000000;fill-opacity:0.5;stroke:none;stroke-width:0.0774579px;stroke-linecap:butt;stroke-linejoin:miter;stroke-opacity:1"
       d="m 77.190186,138.50984 c -2.764197,0.12493 -5.25994,-0.38837 -7.780154,-0.8435 3.41703,-0.9648 7.024039,-1.68504 10.589283,-1.83576 -0.543265,0.89526 -1.5087,1.89853 -2.809129,2.67926 z"
       id="path26332-4-5-5"
       sodipodi:nodetypes="cccc" />
    <path
       style="fill:#000000;fill-opacity:0.269231;stroke:none;stroke-width:0.264583px;stroke-linecap:butt;stroke-linejoin:miter;stroke-opacity:1"
       d="m 79.047395,93.388569 c -1.448824,6.996121 -0.663351,14.899021 -7.428535,21.072591 6.986951,-2.98781 12.924019,-8.3016 18.370034,-9.59422 5.446015,-1.29262 24.596696,-0.0537 32.694336,0.7053 -15.51928,-4.94599 -33.881582,-4.58872 -33.281056,-15.705484 -4.575149,2.397129 -3.676271,2.223512 -4.207919,2.51062 -0.39034,0.210797 -3.695995,-0.19541 -6.14686,1.011193 z"
       id="path27352"
       sodipodi:nodetypes="cczccsc" />
    <path
       style="fill:#000000;fill-opacity:0.269231;stroke:none;stroke-width:0.264583px;stroke-linecap:butt;stroke-linejoin:miter;stroke-opacity:1"
       d="m 122.21153,105.52184 c 1.49411,-0.10116 2.94075,-0.21287 2.89115,-0.65707 l 2.56261,1.18274 z"
       id="path27945"
       sodipodi:nodetypes="cccc" />
    <path
       style="fill:#ff9955;stroke:#000000;stroke-width:0.264583px;stroke-linecap:butt;stroke-linejoin:miter;stroke-opacity:1"
       d="m 242.64875,91.17496 c 2.84497,-1.241332 7.95622,-2.46513 14.78104,-2.924732 2.95024,-0.198677 8.18496,1.427039 8.75177,3.084168 0.56681,1.657129 7.15479,1.402392 7.58635,3.026435 0.53815,2.168289 -5.13317,3.937755 -6.38107,4.152403 -5.80624,2.116276 -11.96944,0.307326 -19.1571,-1.948691 -7.18766,-2.256017 -9.54819,-3.658592 -5.58099,-5.389583 z"
       id="path29765"
       sodipodi:nodetypes="sszcczs" />
    <path
       style="fill:#ff9955;stroke:#000000;stroke-width:0.247457px;stroke-linecap:butt;stroke-linejoin:miter;stroke-opacity:1"
       d="m 236.39253,54.422989 c 2.36161,-1.688385 6.79999,-3.80103 12.95453,-5.547447 2.6605,-0.754943 7.76544,-0.284632 8.60595,1.121306 0.84051,1.40594 6.81818,-0.107038 7.52852,1.294908 0.91361,1.879154 -3.93116,4.599826 -5.03112,5.038647 -4.90081,3.06417 -10.8908,2.606613 -17.90489,1.939078 -7.01409,-0.667532 -9.44617,-1.4921 -6.15299,-3.846492 z"
       id="path29765-0"
       sodipodi:nodetypes="sszcczs" />
    <g
       id="g30831">
      <ellipse
         style="fill:#000000;fill-opacity:1;stroke:none;stroke-width:0.934;stroke-dasharray:none;stroke-opacity:0.992157"
         id="path30786"
         cx="143.56662"
         cy="82.918304"
         rx="2.8911505"
         ry="2.6283185" />
      <ellipse
         style="fill:none;fill-opacity:1;stroke:#000000;stroke-width:1.634;stroke-dasharray:none;stroke-opacity:1"
         id="path30788"
         cx="144.09229"
         cy="84.232468"
         rx="33.379642"
         ry="28.123009" />
    </g>
    <path
       style="fill:#ffffff;stroke:#000000;stroke-width:0.264583px;stroke-linecap:butt;stroke-linejoin:miter;stroke-opacity:1"
       d="m 127.15968,135.50578 c 1.12975,0.42968 3.06425,-0.43891 3.717,2.13728 0.57835,0.0922 0.99715,0.46132 1.26677,1.02236 0.16535,0.34407 1.43615,0.66736 1.49167,1.13612 0.0526,0.44384 -1.10458,1.0277 -1.14631,1.54907 -0.12077,1.50913 -0.62807,3.27321 -1.47274,4.88802 3.36254,-0.0843 3.97049,-0.8722 5.62197,-1.81204 0.0638,-0.92697 -0.0119,-2.76821 -0.46234,-4.14776 -0.29257,-0.89597 0.26218,-1.45898 0.0442,-3.00748 0.52027,-1.78757 1.82759,-2.26837 4.13517,-2.6019 0.21501,-6.44214 2.39649,-12.14235 1.75304,-17.58147 -0.26839,-2.26875 -2.54799,-3.94931 -3.23985,-6.48612 1.01526,-2.6489 2.70566,-4.53828 4.40598,-6.4165 0,0 -3.21359,1.50941 -4.60214,1.72805 -1.38854,0.21864 -3.42131,-0.49184 -3.42131,-0.49184 -0.1881,3.44623 0.58984,4.64118 2.87407,6.10954 -3.41575,8.93657 -4.1913,13.55134 0.7434,22.85957 -1.47721,-0.42116 -2.6478,-1.33107 -5.38965,0.7434 -0.64563,-0.15241 -2.2302,-1.1151 -2.2302,-1.1151 z"
       id="path31951"
       sodipodi:nodetypes="ccsssccsccscczcccccc" />
  </g>
</svg>
