<?xml version="1.0" ?><svg style="enable-background:new 0 0 24 24;" version="1.1" viewBox="0 0 24 24" xml:space="preserve" xmlns="http://www.w3.org/2000/svg" xmlns:xlink="http://www.w3.org/1999/xlink"><style type="text/css">
	.st0{opacity:0.2;fill:none;stroke:#000000;stroke-width:5.000000e-02;stroke-miterlimit:10;}
</style><g id="Layer_Grid"/><g id="Layer_2"><path d="M21,18c0-0.6-0.4-1-1-1h-0.4L12.9,3.6c-0.3-0.7-1.4-0.7-1.8,0L4.4,17H4c-0.6,0-1,0.4-1,1c0,0.4,0.2,0.6,0.5,0.8l-0.4,0.7   c-0.2,0.5,0,1.1,0.4,1.3c0.5,0.2,1.1,0,1.3-0.4L5.6,19H10h4h4.4l0.7,1.4c0.2,0.4,0.5,0.6,0.9,0.6c0.2,0,0.3,0,0.4-0.1   c0.5-0.2,0.7-0.8,0.4-1.3l-0.4-0.7C20.8,18.6,21,18.4,21,18z M12,6.2L12.9,8h-1.8L12,6.2z M9,17H6.6l0.5-1H9V17z M9.2,14H8.1l0.5-1   h1.2C9.5,13.3,9.3,13.6,9.2,14z M13,17h-2v-2c0-0.6,0.4-1,1-1c0.3,0,0.5,0.1,0.7,0.3c0.2,0.2,0.3,0.4,0.3,0.7V17z M9.6,11l0.5-1   h3.8l0.5,1H9.6z M14.2,13h1.2l0.5,1h-1.1C14.7,13.6,14.5,13.3,14.2,13z M15,17v-1h1.9l0.5,1H15z"/></g></svg>