<svg width="131" height="59" viewBox="0 0 85 38" xmlns="http://www.w3.org/2000/svg"><path d="M25.968 9.967l.027 1.129c-1.067-.938-2.486-1.367-4.456-1.367-4.395 0-6.2 2.102-6.221 7.26v1.371c0 2.889.536 4.784 1.726 5.98 1.042 1.049 2.588 1.556 4.725 1.556 1.545 0 2.713-.276 3.599-.863v.867h3.702L29.03 10l-3.062-.033zm-3.842 12.922c-1.088 0-1.808-.211-2.26-.667-.616-.62-.883-1.778-.868-3.902v-1.004c.013-3.587.713-4.57 3.257-4.57 1.194 0 2.002.223 2.472.696.47.474.663 1.19.663 2.316l-.016 4.146c-.004 2.096-.976 2.985-3.248 2.985zM43.988 10h-3.634l-.013 10.291c0 1.085-.157 1.613-.568 1.956-.474.397-1.192.584-2.263.584-1.07 0-1.766-.164-2.207-.515-.442-.352-.588-.89-.585-1.965L34.75 10h-3.672l.02 10.749c0 1.86.576 3.175 1.78 4.02C34 25.57 35.357 25.9 37.567 25.9c.931.017 1.862-.079 2.77-.284l.018 1.373c0 1.111-.172 1.333-1.007 1.333H37.69v3.06h2.257c2.857 0 4.025-1.133 4.029-3.91L43.988 10zM5.124 22.802v3.111h2.23c4.5 0 6.43-2.222 6.454-7.473v-1.371c.024-2.847-.51-4.705-1.665-5.862-.996-.998-2.429-1.465-4.54-1.465-1.953 0-3.43.445-4.49 1.37v-1.099L.046 10l.038 21.38h3.702V15.849c.014-2.271.824-3.076 3.19-3.076 1.124 0 1.857.21 2.31.667.598.602.852 1.751.841 3.842v1.005c-.018 3.586-.755 4.51-3.232 4.515h-1.77zM70.294.587V20.04c0 1.124.183 1.844.6 2.262.418.418 1.129.622 2.398.622 2.28 0 3.358-.46 3.363-4.666v-.985c0-1.962-.234-2.86-.795-3.449-.391-.408-.983-.624-1.908-.684h-2.208V10h2.48c1.987.031 3.435.538 4.426 1.527 1.184 1.184 1.734 2.85 1.73 5.653v1.229c0 5.284-2.138 7.538-7.123 7.538-2.605 0-4.235-.471-5.286-1.525-.918-.922-1.353-2.293-1.349-4.193V.1c-.203 0-.406-.016-.609-.016A18.611 18.611 0 0055.38 3.407v17.91c0 .647.062 1.007.221 1.163.159.156.367.187.748.187h1.767v3.235h-2.292c-1.545 0-2.568-.322-3.241-1.013-.673-.691-.958-1.687-.956-3.18V6.82a18.983 18.983 0 00-3.663 17.432c1.75 6.062 6.392 10.844 12.373 12.744V15.609h3.877V37.79c.587.058 1.183.09 1.788.09 9.555.035 17.612-7.162 18.711-16.716 1.1-9.554-5.109-18.414-14.42-20.578zM64.468 12.27c0 1.282-.76 2.016-2.076 2.016h-.154a2.2 2.2 0 01-1.599-.583 2.008 2.008 0 01-.543-1.482V12c0-1.262.79-2.016 2.106-2.016h.155a2.162 2.162 0 011.572.565c.378.41.573.957.539 1.515v.207z" fill="#2DD7FF"/></svg>